<?xml version="1.0" encoding="utf-8"?>
<!-- Generator: Adobe Illustrator 19.2.1, SVG Export Plug-In . SVG Version: 6.00 Build 0)  -->
<svg version="1.1" xmlns="http://www.w3.org/2000/svg" xmlns:xlink="http://www.w3.org/1999/xlink" x="0px" y="0px" width="182.7px"
	 height="59.5px" viewBox="0 0 182.7 59.5" style="enable-background:new 0 0 182.7 59.5;" xml:space="preserve">
<style type="text/css">
	.st0{display:none;}
	.st1{display:inline;}
	.st2{fill:#ABCC59;}
	.st3{fill:#009FE3;}
</style>
<g id="hilfslinien" class="st0">
</g>
<g id="Ebene_1_Kopie_Kopie_Kopie_Kopie_Kopie_Kopie">
	<g>
		<path class="st2" d="M61.9,38c-1.2,0.8-2.6,1-3.9,1c-0.9,0-1.9,0-1.9-1.3c0-0.6,0.3-1.3,1-1.3c0.3,0,0.6,0,0.9,0
			c0.9,0,1.9-0.1,2.6-0.6c2-1.4,3.2-3.3,3.2-5.9c0-1.5-0.2-4.7-2.1-4.7c-0.8,0-1.6,0.4-2.3,0.9c-3.1,2.5-3.7,6.9-3.7,10.8
			c0,0.8-0.6,1.3-1.2,1.3c-0.7,0-1.1-0.6-1.1-1.3V11.5c0-0.8,0.4-1.3,1.2-1.3c0.8,0,1.2,0.5,1.2,1.3v15.6c1.3-2.2,3.4-4.3,6-4.3
			c3.6,0,4.5,4,4.5,7.2C66.2,33.4,64.6,36.1,61.9,38z"/>
		<path class="st2" d="M80.6,39c-0.6,0-1.2-0.4-1.2-1.1v-2.8c-1.4,2.1-3.5,3.8-5.9,3.8c-3.3,0-4.5-3.7-4.5-6.7
			c0-5.3,3.1-9.4,8.2-9.4c1.2,0,2.5,0,3.7,0.4c0.5,0.2,0.9,0.5,0.9,1.1c0,0.7-0.5,1.2-1.1,1.2c-0.1,0-0.2,0-0.3,0
			c-1.1-0.2-2.1-0.3-3.2-0.3c-3.8,0-5.8,3.1-5.8,7c0,1.5,0.5,4.3,2.3,4.3c0.8,0,1.5-0.4,2.1-0.9c2.9-2.3,3.7-4.9,3.7-8.6
			c0-0.7,0.6-1,1.2-1s1.1,0.4,1.1,1.1v10.8C81.8,38.6,81.3,39,80.6,39z"/>
		<path class="st2" d="M94.7,38c-1.2,0.8-2.6,1-3.9,1c-0.9,0-1.9,0-1.9-1.3c0-0.6,0.3-1.3,1-1.3c0.3,0,0.6,0,0.9,0
			c0.9,0,1.9-0.1,2.6-0.6c2-1.4,3.2-3.3,3.2-5.9c0-1.5-0.2-4.7-2.1-4.7c-0.8,0-1.6,0.4-2.3,0.9c-3.1,2.5-3.7,6.9-3.7,10.8
			c0,0.8-0.6,1.3-1.2,1.3c-0.7,0-1.1-0.6-1.1-1.3V11.5c0-0.8,0.4-1.3,1.2-1.3c0.8,0,1.2,0.5,1.2,1.3v15.6c1.3-2.2,3.4-4.3,6-4.3
			c3.6,0,4.5,4,4.5,7.2C99,33.4,97.4,36.1,94.7,38z"/>
		<path class="st2" d="M108.1,50.8c-1.2,0-6-0.9-6-2.6c0-0.7,0.7-1.3,1.3-1.3c0.2,0,0.3,0,0.5,0.1c1.3,0.6,2.8,1.2,4.3,1.2
			c2.5,0,3.7-0.7,4-3.4c0.2-1.4,0.2-2.8,0.2-4.2l0.1-6c-1.2,2.3-3.2,4.3-5.8,4.3c-3.1,0-4.6-3.2-4.6-6.1V24c0-0.7,0.5-1.3,1.1-1.3
			c0.7,0,1.2,0.5,1.2,1.3v8.8c0,1.5,0.6,3.6,2.3,3.6c0.8,0,1.3-0.2,2-0.6c3.6-3,3.7-7.4,3.7-11.8c0-0.7,0.5-1.3,1.2-1.3
			c0.7,0,1.2,0.5,1.2,1.3V41C114.7,46.4,114.2,50.8,108.1,50.8z"/>
		<path class="st2" d="M124.4,30.6h-5.2c-0.4,0-0.7-0.4-0.7-1.1c0-0.8,0.3-1.3,0.7-1.3h5.2c0.4,0,0.7,0.4,0.7,1.1
			C125.2,30.1,124.8,30.6,124.4,30.6z"/>
		<path class="st2" d="M142.3,37.7c0,0.7-0.5,1.3-1.2,1.3c-0.7,0-1.3-0.6-1.3-1.4v-8.7c0-1.5-0.6-3.6-2.4-3.6c-0.8,0-1.4,0.2-2,0.7
			c-3.7,2.8-4.1,7.5-4.1,11.7c0,0.7-0.5,1.3-1.3,1.3c-0.7,0-1.3-0.5-1.3-1.3V11.6c0-0.7,0.5-1.3,1.3-1.3c0.7,0,1.3,0.5,1.3,1.3v15.6
			c1.3-2.1,3.4-4.4,6.1-4.4c3.4,0,4.9,3.2,4.9,6.1C142.3,31.8,142.3,34.7,142.3,37.7z"/>
		<path class="st2" d="M147.9,17.1c-1,0-1.9-0.8-1.9-1.8c0-1,0.9-1.8,1.9-1.8s1.8,0.8,1.8,1.8C149.7,16.3,148.9,17.1,147.9,17.1z
			 M147.8,38.9c-0.7,0-1.3-0.5-1.3-1.3V24c0-0.7,0.6-1.2,1.3-1.2c0.7,0,1.3,0.5,1.3,1.2v13.7C149.1,38.4,148.5,38.9,147.8,38.9z"/>
		<path class="st2" d="M155,39c-0.8,0-1.3-0.6-1.3-1.3V11.6c0-0.7,0.5-1.2,1.3-1.2c0.7,0,1.3,0.5,1.3,1.2v26.1
			C156.3,38.4,155.8,39,155,39z"/>
		<path class="st2" d="M182.2,36.9c-1.2,1.5-3.3,2.1-5.1,2.1c-4.3,0-6.8-3.6-6.8-7.6c0-4.4,3-8.6,7.7-8.6c2.3,0,4.1,1.4,4.1,3.8
			c0,3.9-4.1,5.3-7.4,5.3c-0.7,0-1.3-0.5-1.3-1.3c0-0.7,0.5-1.2,1.2-1.2c1.9,0,4.9-0.5,4.9-2.9c0-1.1-0.6-1.4-1.6-1.4
			c-3.3,0-5.1,3.2-5.1,6.2c0,2.7,1.4,5.2,4.3,5.2c1.4,0,2.5-0.4,3.5-1.3c0.3-0.3,0.5-0.5,1-0.5c0.6,0,1.1,0.6,1.1,1.2
			C182.7,36.3,182.5,36.6,182.2,36.9z"/>
		<g>
			<path class="st2" d="M170.4,13.1c-0.8,0-1.5-0.3-2.3-0.3c-3.2,0-3.4,1.7-3.4,4.5v5.5h3.8c0.7,0,1.3,0.5,1.3,1.3
				c0,0.7-0.5,1.3-1.3,1.3h-3.8v12.4c0,0.7-0.6,1.3-1.3,1.3c-0.7,0-1.2-0.5-1.2-1.3V25.3c-1,0-2.5,0.2-2.5-1.3
				c0-1.5,1.5-1.3,2.5-1.3v-5.5c0-4.3,1.1-7,5.9-7c0.4,0,2.3,0.2,2.6,0.3c0.6,0.2,0.9,0.6,0.9,1.2C171.6,12.5,171.1,13.1,170.4,13.1
				z"/>
		</g>
		<g>
			<path class="st3" d="M59.4,55.3v1.1h-6.2l4.1-5h-3.4v-1.1h5.7l-4.1,5H59.4z"/>
			<path class="st3" d="M62,50.3v3.4c0,1,0.2,1.8,1.4,1.8c1.2,0,1.4-0.9,1.4-1.8v-3.4H66v3.5c0,1.7-0.8,2.8-2.6,2.8
				c-1.8,0-2.6-1.1-2.6-2.8v-3.5H62z M62.8,48.2c0,0.4-0.4,0.8-0.8,0.8c-0.4,0-0.8-0.4-0.8-0.8c0-0.4,0.4-0.8,0.8-0.8
				C62.4,47.4,62.8,47.7,62.8,48.2z M65.5,48.2c0,0.4-0.4,0.8-0.8,0.8c-0.4,0-0.8-0.4-0.8-0.8c0-0.4,0.4-0.8,0.8-0.8
				C65.2,47.4,65.5,47.7,65.5,48.2z"/>
			<path class="st3" d="M69.3,51.3L69.3,51.3c0.3-0.7,0.9-1.2,1.7-1.2c0.3,0,0.7,0.1,1,0.3l-0.5,1.1c-0.2-0.2-0.4-0.2-0.7-0.2
				c-1.3,0-1.4,1.2-1.4,2.2v3h-1.2v-6.1h1.2V51.3z"/>
			<path class="st3" d="M74.8,47.5c0,0.4-0.4,0.8-0.8,0.8c-0.4,0-0.8-0.4-0.8-0.8c0-0.5,0.4-0.8,0.8-0.8
				C74.4,46.7,74.8,47.1,74.8,47.5z M74.5,56.4h-1.2v-6.1h1.2V56.4z"/>
			<path class="st3" d="M81.4,52c-0.5-0.5-1-0.8-1.7-0.8c-1.1,0-2,1-2,2.1c0,1.2,0.9,2.2,2.1,2.2c0.7,0,1.2-0.3,1.7-0.8v1.5
				c-0.5,0.3-1.1,0.4-1.7,0.4c-1.8,0-3.3-1.4-3.3-3.2c0-1.9,1.5-3.3,3.3-3.3c0.5,0,1.1,0.1,1.6,0.4V52z"/>
			<path class="st3" d="M84.4,45.1v6h0c0.4-0.6,1.1-1,1.8-1c1.7,0,2.2,1.2,2.2,2.6v3.6h-1.2v-3.5c0-1-0.1-1.7-1.3-1.7
				c-1.5,0-1.5,1.3-1.5,2.4v2.8h-1.2V45.1H84.4z"/>
		</g>
		<path class="st3" d="M45.3,49.6c-1-2.4-3.5-3.9-6.4-3.9c-1.1,0-2.2,0.2-3.3,0.7c-0.3,0.1-0.5,0.2-0.7,0.4l-8.3-9.6l4.9-4.8
			C39.6,30,44.8,24.3,45,16.9c0-0.3-0.1-0.7-0.4-0.9c-0.2-0.2-0.6-0.4-0.9-0.4H31c0-0.1-0.1-0.3-0.2-0.5c-1-1.6-3.2-0.1-4,0.5h0
			c0.6-0.6,2.2-2.5,2-4.3c-0.2-1.5-2.3-0.8-3.5-0.2C26.5,9.7,27.6,8.1,27,8c-0.4-0.1-1.2,0.4-2,1V1.3c0-0.4-0.2-0.7-0.4-1
			c-0.3-0.2-0.6-0.3-1-0.3c-4.9,0.7-9,3-11.9,6.2C10.9,5.3,9.4,4,7.3,2.7c0,0,0,0,0,0S4.3,0.6,2,1.5C0.3,2.1-0.4,4.1,0.3,5.7
			C1,7.4,2.9,8.1,4.5,7.4c0.7-0.3,1.4-1.3,1.9-2.3c2,1.3,3.2,2.4,3.7,3.1c-1.6,2.4-2.5,5.3-2.5,8.3c0,6.7,4,13.7,11.6,16l3.9,4.5
			l-9.5,9.4c-1-0.5-2.1-0.7-3.2-0.7c-1.1,0-2.2,0.2-3.3,0.7c-1.8,0.8-3.3,2.2-4.1,3.9c-0.8,1.8-0.9,3.7-0.1,5.4
			c1,2.4,3.5,3.9,6.4,3.9c1.1,0,2.2-0.2,3.3-0.7c3.8-1.7,5.7-5.8,4.2-9.3c-0.3-0.6-0.6-1.2-1.1-1.7l9.1-9l8.1,9.4
			c-1.9,2-2.6,4.9-1.5,7.4c1,2.4,3.5,3.9,6.4,3.9c1.1,0,2.2-0.2,3.3-0.7c1.8-0.8,3.3-2.2,4.1-3.9C46,53.2,46,51.3,45.3,49.6z
			 M11.5,56.5c-0.7,0.3-1.5,0.5-2.3,0.5c-1.9,0-3.4-0.9-4.1-2.4c-0.4-1-0.4-2.2,0.1-3.3c0.5-1.2,1.5-2.1,2.8-2.6
			c0.7-0.3,1.5-0.5,2.3-0.5c1.9,0,3.4,0.9,4.1,2.4C15.4,52.7,14.1,55.4,11.5,56.5z M42.4,18.2c-0.2,1.3-0.5,2.5-1.1,3.7L31,18.2
			H42.4z M40,24c-0.8,1-1.8,2-2.9,2.8l-7.5-6.5L40,24z M34.9,28.2c-1.3,0.7-2.7,1.2-4.3,1.6L27,21.4L34.9,28.2z M28.1,30.4
			c-0.5,0.1-1.1,0.2-1.6,0.2c-0.6,0.1-1.3,0.1-1.9,0.1c0,0,0,0,0,0c-0.3,0-0.7,0-1,0l0.9-8.8L28.1,30.4z M15.8,5.8l4.5,7.7l-7.7-4.4
			C13.5,7.8,14.6,6.7,15.8,5.8z M11.3,11.3l7.6,4.3l-8.7,0C10.3,14.1,10.7,12.6,11.3,11.3z M10.3,18.1l8,0l-7.2,3.5
			C10.7,20.6,10.4,19.4,10.3,18.1z M12.2,23.9l7.6-3.7l-5,6.9C13.8,26.2,12.9,25.1,12.2,23.9z M21.1,30.3c-1.5-0.3-2.9-0.9-4.2-1.7
			l5.1-7.1L21.1,30.3z M22.5,12.2L18,4.4c1.4-0.7,2.9-1.3,4.5-1.7V12.2z M23.2,33.2c0.5,0,0.9,0.1,1.4,0.1c0,0,0,0,0,0
			c0.7,0,1.4,0,2.1-0.1c0.1,0,0.2,0,0.3,0l-2.1,2.1L23.2,33.2z M42.9,53.9c-0.5,1.2-1.5,2.1-2.8,2.6c-0.7,0.3-1.5,0.5-2.3,0.5
			c-1.9,0-3.4-0.9-4.1-2.4c-0.9-2.2,0.4-4.8,2.9-5.9c0.7-0.3,1.5-0.5,2.3-0.5c1.9,0,3.4,0.9,4.1,2.4C43.4,51.6,43.4,52.8,42.9,53.9z
			"/>
	</g>
</g>
</svg>
